# xmcd
#
# Track frame offsets:
#	183
#	25008
#	42790
#	61375
#	81473
#	102110
#	112918
#	127698
#	143145
#	155160
#	167998
#	188168
#	200655
#	218995
#	245608
#	266148
#
# Disc length: 3799 seconds
#
# Revision: 2
# Processed by: cddbd v1.5.2PL0 Copyright (c) Steve Scherf et al.
# Submitted via: audiograbber 1.83.01
#
DISCID=e50ed510
DTITLE=Wolfgang Ambros - Selected W. Ambros Live - CD2
DYEAR=1986
DGENRE=Austro Pop
TTITLE0=Der Letzte Tanz
TTITLE1=Geplante Zukunft
TTITLE2=Belize
TTITLE3=Heite Drah I Mi Ham
TTITLE4=Der Sinn Des Lebens
TTITLE5=Corrina, Corrina
TTITLE6=Einsamkeit
TTITLE7=Bettina
TTITLE8=Hoffnungslos
TTITLE9=Baba and Foi Ned
TTITLE10=I Bin Nur A Pompfinewra
TTITLE11=Lokalverbot
TTITLE12=Wia A Adler
TTITLE13=Mama
TTITLE14=Es Lebe Der Zentralfriedhof
TTITLE15=Weiﬂ Wie Schnee
EXTD=
EXTT0=
EXTT1=
EXTT2=
EXTT3=
EXTT4=
EXTT5=
EXTT6=
EXTT7=
EXTT8=
EXTT9=
EXTT10=
EXTT11=
EXTT12=
EXTT13=
EXTT14=
EXTT15=
PLAYORDER=
